<?xml version="1.0" encoding="utf-8"?>
<!-- Generator: Adobe Illustrator 19.1.0, SVG Export Plug-In . SVG Version: 6.00 Build 0)  -->
<svg version="1.1" xmlns="http://www.w3.org/2000/svg" xmlns:xlink="http://www.w3.org/1999/xlink" x="0px" y="0px"
	 viewBox="0 0 476 252.6" style="enable-background:new 0 0 476 252.6;" xml:space="preserve">
<style type="text/css">
	.st0{fill:#FF8B00;}
	.st1{fill:#605D5A;}
	.st2{fill:#93908C;}
	.st3{fill:#F7F1EB;}
	.st4{fill:none;stroke:#000000;stroke-width:4;stroke-miterlimit:10;}
	.st5{fill:#FFFFFF;}
	.st6{display:none;}
	.st7{display:inline;fill:none;stroke:#000000;stroke-miterlimit:10;}
</style>
<g id="BG">
	<rect x="-234.4" y="-113.6" class="st0" width="27.2" height="27.2"/>
	<rect x="-188.8" y="-113.6" class="st1" width="26.6" height="26.6"/>
	<rect x="-188.8" y="-72.4" class="st2" width="26.6" height="26.6"/>
	<rect x="-142" y="-113.6" class="st3" width="26.6" height="26.6"/>
</g>
<g id="dupe-up">
	<rect y="198.6" class="st0" width="68.8" height="38.9"/>
	<rect x="75" y="198.6" class="st0" width="18.8" height="38.9"/>
	<rect x="355" y="198.6" class="st0" width="68.8" height="38.9"/>
	<rect x="430" y="198.6" class="st0" width="18.8" height="38.9"/>
	<rect x="457.2" y="198.6" class="st0" width="18.8" height="38.9"/>
	<circle cx="206.8" cy="116.9" r="49"/>
	<circle cx="304.8" cy="165.9" r="26"/>
	<circle class="st4" cx="304.8" cy="165.9" r="33"/>
	<circle class="st5" cx="201.3" cy="93.4" r="7.5"/>
	<circle class="st5" cx="305.3" cy="151.9" r="2.7"/>
	<g>
		<path class="st0" d="M166.2,68.9H-2.2v11h158.3C159,75.9,162.4,72.9,166.2,68.9z"/>
		<path class="st0" d="M247.4,68.9c3.8,4,7.2,7,10.1,11h225.3v-11H247.4z"/>
	</g>
	<rect x="-11.7" y="27.9" class="st2" width="530" height="30"/>
	<rect x="-11.7" y="237.6" class="st2" width="530" height="15"/>
</g>
<g id="Circle" class="st6">
	<circle class="st7" cx="238.4" cy="237.6" r="237.6"/>
</g>
</svg>
